<?xml version="1.0" encoding="UTF-8" standalone="no"?>
<!DOCTYPE svg PUBLIC "-//W3C//DTD SVG 1.1//EN"
 "http://www.w3.org/Graphics/SVG/1.1/DTD/svg11.dtd">
<!-- Generated by graphviz version 2.50.0 (20220117.2223)
 -->
<!-- Title: dag_flowchart Pages: 1 -->
<svg width="1395pt" height="1239pt"
 viewBox="0.00 0.00 1394.60 1239.00" xmlns="http://www.w3.org/2000/svg" xmlns:xlink="http://www.w3.org/1999/xlink">
<g id="graph0" class="graph" transform="scale(1 1) rotate(0) translate(4 1235)">
<title>dag_flowchart</title>
<polygon fill="white" stroke="transparent" points="-4,4 -4,-1235 1390.6,-1235 1390.6,4 -4,4"/>
<!-- v0 -->
<g id="node1" class="node">
<title>v0</title>
<ellipse fill="black" stroke="black" cx="103.6" cy="-1212.4" rx="3.6" ry="3.6"/>
<text text-anchor="middle" x="50" y="-1219.8" font-family="Times,serif" font-size="14.00">Channel.fromPath</text>
</g>
<!-- v1 -->
<g id="node2" class="node">
<title>v1</title>
<ellipse fill="none" stroke="black" cx="103.6" cy="-1168.2" rx="3.5" ry="3.5"/>
<text text-anchor="middle" x="77.6" y="-1175.5" font-family="Times,serif" font-size="14.00">splitCsv</text>
</g>
<!-- v0&#45;&gt;v1 -->
<g id="edge1" class="edge">
<title>v0&#45;&gt;v1</title>
<path fill="none" stroke="black" d="M103.6,-1208.63C103.6,-1203.33 103.6,-1191.43 103.6,-1182.08"/>
<polygon fill="black" stroke="black" points="107.1,-1182.03 103.6,-1172.03 100.1,-1182.03 107.1,-1182.03"/>
</g>
<!-- v6 -->
<g id="node3" class="node">
<title>v6</title>
<ellipse fill="none" stroke="black" cx="323.6" cy="-1095.6" rx="75.29" ry="18"/>
<text text-anchor="middle" x="323.6" y="-1091.9" font-family="Times,serif" font-size="14.00">vcf_preprocessing</text>
</g>
<!-- v1&#45;&gt;v6 -->
<g id="edge2" class="edge">
<title>v1&#45;&gt;v6</title>
<path fill="none" stroke="black" d="M104.71,-1164.8C107.86,-1158.27 117.59,-1140.04 131.6,-1131.6 163.43,-1112.42 203.22,-1103.25 238.32,-1099.03"/>
<polygon fill="black" stroke="black" points="239,-1102.48 248.56,-1097.93 238.24,-1095.52 239,-1102.48"/>
<text text-anchor="middle" x="187.6" y="-1135.4" font-family="Times,serif" font-size="14.00">genome_chunks_list</text>
</g>
<!-- v14 -->
<g id="node8" class="node">
<title>v14</title>
<ellipse fill="none" stroke="black" cx="741.6" cy="-1008.6" rx="27.1" ry="18"/>
<text text-anchor="middle" x="741.6" y="-1004.9" font-family="Times,serif" font-size="14.00">QC1</text>
</g>
<!-- v6&#45;&gt;v14 -->
<g id="edge7" class="edge">
<title>v6&#45;&gt;v14</title>
<path fill="none" stroke="black" d="M350.41,-1078.6C370.84,-1067.18 400.06,-1052.51 427.6,-1044.6 524.58,-1016.76 644.32,-1010.86 704.03,-1009.74"/>
<polygon fill="black" stroke="black" points="704.18,-1013.24 714.12,-1009.59 704.07,-1006.24 704.18,-1013.24"/>
</g>
<!-- v2 -->
<g id="node4" class="node">
<title>v2</title>
<ellipse fill="black" stroke="black" cx="238.6" cy="-1168.2" rx="3.6" ry="3.6"/>
</g>
<!-- v2&#45;&gt;v6 -->
<g id="edge3" class="edge">
<title>v2&#45;&gt;v6</title>
<path fill="none" stroke="black" d="M239.38,-1164.64C241.42,-1158.31 247.48,-1141.69 257.6,-1131.6 263.35,-1125.87 270.23,-1120.85 277.34,-1116.53"/>
<polygon fill="black" stroke="black" points="279.41,-1119.39 286.42,-1111.44 275.98,-1113.28 279.41,-1119.39"/>
<text text-anchor="middle" x="288.6" y="-1135.4" font-family="Times,serif" font-size="14.00">sample_list</text>
</g>
<!-- v3 -->
<g id="node5" class="node">
<title>v3</title>
<ellipse fill="black" stroke="black" cx="323.6" cy="-1168.2" rx="3.6" ry="3.6"/>
</g>
<!-- v3&#45;&gt;v6 -->
<g id="edge4" class="edge">
<title>v3&#45;&gt;v6</title>
<path fill="none" stroke="black" d="M323.6,-1164.52C323.6,-1157.85 323.6,-1139.9 323.6,-1124.13"/>
<polygon fill="black" stroke="black" points="327.1,-1123.73 323.6,-1113.73 320.1,-1123.73 327.1,-1123.73"/>
<text text-anchor="middle" x="346.6" y="-1135.4" font-family="Times,serif" font-size="14.00">qc_geno</text>
</g>
<!-- v4 -->
<g id="node6" class="node">
<title>v4</title>
<ellipse fill="black" stroke="black" cx="392.6" cy="-1168.2" rx="3.6" ry="3.6"/>
</g>
<!-- v4&#45;&gt;v6 -->
<g id="edge5" class="edge">
<title>v4&#45;&gt;v6</title>
<path fill="none" stroke="black" d="M391.49,-1164.74C388.64,-1158.64 380.62,-1142.52 370.6,-1131.6 366.55,-1127.18 361.87,-1122.94 357.07,-1119.03"/>
<polygon fill="black" stroke="black" points="359.02,-1116.12 348.96,-1112.79 354.75,-1121.67 359.02,-1116.12"/>
<text text-anchor="middle" x="401.6" y="-1135.4" font-family="Times,serif" font-size="14.00">qc_maf</text>
</g>
<!-- v5 -->
<g id="node7" class="node">
<title>v5</title>
<ellipse fill="black" stroke="black" cx="457.6" cy="-1168.2" rx="3.6" ry="3.6"/>
</g>
<!-- v5&#45;&gt;v6 -->
<g id="edge6" class="edge">
<title>v5&#45;&gt;v6</title>
<path fill="none" stroke="black" d="M456,-1164.54C451.93,-1157.99 440.48,-1140.91 426.6,-1131.6 414.3,-1123.35 399.88,-1116.87 385.78,-1111.85"/>
<polygon fill="black" stroke="black" points="386.7,-1108.47 376.1,-1108.6 384.47,-1115.1 386.7,-1108.47"/>
<text text-anchor="middle" x="487.6" y="-1135.4" font-family="Times,serif" font-size="14.00">bcftools_threads</text>
</g>
<!-- v23 -->
<g id="node16" class="node">
<title>v23</title>
<ellipse fill="none" stroke="black" cx="994.6" cy="-834.6" rx="27.1" ry="18"/>
<text text-anchor="middle" x="994.6" y="-830.9" font-family="Times,serif" font-size="14.00">QC2</text>
</g>
<!-- v14&#45;&gt;v23 -->
<g id="edge15" class="edge">
<title>v14&#45;&gt;v23</title>
<path fill="none" stroke="black" d="M746.73,-990.46C750.25,-980.34 755.55,-967.61 762.6,-957.6 783.07,-928.54 791.44,-922.42 821.6,-903.6 866.15,-875.8 923.95,-855.87 960.17,-845.04"/>
<polygon fill="black" stroke="black" points="961.16,-848.39 969.78,-842.22 959.2,-841.67 961.16,-848.39"/>
</g>
<!-- v19 -->
<g id="node17" class="node">
<title>v19</title>
<ellipse fill="none" stroke="black" cx="910.6" cy="-921.6" rx="79.89" ry="18"/>
<text text-anchor="middle" x="910.6" y="-917.9" font-family="Times,serif" font-size="14.00">ancestry_clustering</text>
</g>
<!-- v14&#45;&gt;v19 -->
<g id="edge16" class="edge">
<title>v14&#45;&gt;v19</title>
<path fill="none" stroke="black" d="M751.1,-991.37C758.39,-980.3 769.41,-966.15 782.6,-957.6 798.57,-947.24 817.57,-939.92 835.98,-934.76"/>
<polygon fill="black" stroke="black" points="837.04,-938.1 845.83,-932.18 835.27,-931.33 837.04,-938.1"/>
</g>
<!-- v7 -->
<g id="node9" class="node">
<title>v7</title>
<ellipse fill="black" stroke="black" cx="420.6" cy="-1095.6" rx="3.6" ry="3.6"/>
</g>
<!-- v7&#45;&gt;v14 -->
<g id="edge8" class="edge">
<title>v7&#45;&gt;v14</title>
<path fill="none" stroke="black" d="M421.01,-1091.73C422.43,-1082.97 427.99,-1056.47 444.6,-1044.6 485.39,-1015.46 633.61,-1010.37 704,-1009.62"/>
<polygon fill="black" stroke="black" points="704.22,-1013.12 714.19,-1009.54 704.17,-1006.12 704.22,-1013.12"/>
<text text-anchor="middle" x="492.6" y="-1048.4" font-family="Times,serif" font-size="14.00">high_LD_regions</text>
</g>
<!-- v8 -->
<g id="node10" class="node">
<title>v8</title>
<ellipse fill="black" stroke="black" cx="539.6" cy="-1095.6" rx="3.6" ry="3.6"/>
</g>
<!-- v8&#45;&gt;v14 -->
<g id="edge9" class="edge">
<title>v8&#45;&gt;v14</title>
<path fill="none" stroke="black" d="M539.57,-1091.81C539.65,-1083.29 541.12,-1057.39 555.6,-1044.6 577.22,-1025.5 656.71,-1016.13 704.49,-1012.14"/>
<polygon fill="black" stroke="black" points="704.78,-1015.62 714.47,-1011.34 704.22,-1008.65 704.78,-1015.62"/>
<text text-anchor="middle" x="628.6" y="-1048.4" font-family="Times,serif" font-size="14.00">good_mappability_regions</text>
</g>
<!-- v9 -->
<g id="node11" class="node">
<title>v9</title>
<ellipse fill="black" stroke="black" cx="708.6" cy="-1095.6" rx="3.6" ry="3.6"/>
</g>
<!-- v9&#45;&gt;v14 -->
<g id="edge10" class="edge">
<title>v9&#45;&gt;v14</title>
<path fill="none" stroke="black" d="M707.99,-1091.75C706.43,-1083.9 702.9,-1061.37 709.6,-1044.6 711.57,-1039.66 714.59,-1034.99 717.99,-1030.76"/>
<polygon fill="black" stroke="black" points="720.71,-1032.97 724.85,-1023.22 715.53,-1028.26 720.71,-1032.97"/>
<text text-anchor="middle" x="731.1" y="-1048.4" font-family="Times,serif" font-size="14.00">qc_hwe</text>
</g>
<!-- v10 -->
<g id="node12" class="node">
<title>v10</title>
<ellipse fill="black" stroke="black" cx="774.6" cy="-1095.6" rx="3.6" ry="3.6"/>
</g>
<!-- v10&#45;&gt;v14 -->
<g id="edge11" class="edge">
<title>v10&#45;&gt;v14</title>
<path fill="none" stroke="black" d="M773.5,-1091.77C770.16,-1083.16 759.84,-1056.57 751.83,-1035.95"/>
<polygon fill="black" stroke="black" points="755.01,-1034.46 748.12,-1026.41 748.48,-1036.99 755.01,-1034.46"/>
<text text-anchor="middle" x="784.1" y="-1048.4" font-family="Times,serif" font-size="14.00">qc_mind</text>
</g>
<!-- v11 -->
<g id="node13" class="node">
<title>v11</title>
<ellipse fill="black" stroke="black" cx="846.6" cy="-1095.6" rx="3.6" ry="3.6"/>
</g>
<!-- v11&#45;&gt;v14 -->
<g id="edge12" class="edge">
<title>v11&#45;&gt;v14</title>
<path fill="none" stroke="black" d="M845.42,-1091.97C841.69,-1083.91 829.39,-1059.2 812.6,-1044.6 806.16,-1039 789.25,-1030.59 773.55,-1023.42"/>
<polygon fill="black" stroke="black" points="774.59,-1020.05 764.04,-1019.15 771.73,-1026.44 774.59,-1020.05"/>
<text text-anchor="middle" x="880.6" y="-1048.4" font-family="Times,serif" font-size="14.00">prune_window_size</text>
</g>
<!-- v12 -->
<g id="node14" class="node">
<title>v12</title>
<ellipse fill="black" stroke="black" cx="979.6" cy="-1095.6" rx="3.6" ry="3.6"/>
</g>
<!-- v12&#45;&gt;v14 -->
<g id="edge13" class="edge">
<title>v12&#45;&gt;v14</title>
<path fill="none" stroke="black" d="M978.29,-1091.69C974.12,-1082.81 960.22,-1056 939.6,-1044.6 878.14,-1010.61 850.59,-1044.22 782.6,-1026.6 779.39,-1025.77 776.11,-1024.74 772.86,-1023.6"/>
<polygon fill="black" stroke="black" points="773.93,-1020.26 763.34,-1019.93 771.42,-1026.79 773.93,-1020.26"/>
<text text-anchor="middle" x="1000.6" y="-1048.4" font-family="Times,serif" font-size="14.00">prune_step_size</text>
</g>
<!-- v13 -->
<g id="node15" class="node">
<title>v13</title>
<ellipse fill="black" stroke="black" cx="1090.6" cy="-1095.6" rx="3.6" ry="3.6"/>
</g>
<!-- v13&#45;&gt;v14 -->
<g id="edge14" class="edge">
<title>v13&#45;&gt;v14</title>
<path fill="none" stroke="black" d="M1089.44,-1092.13C1085.32,-1083.66 1070.43,-1055.69 1048.6,-1044.6 995.77,-1017.78 840.28,-1040.12 782.6,-1026.6 779.2,-1025.8 775.71,-1024.75 772.28,-1023.57"/>
<polygon fill="black" stroke="black" points="773.46,-1020.27 762.87,-1019.95 770.95,-1026.8 773.46,-1020.27"/>
<text text-anchor="middle" x="1091.6" y="-1048.4" font-family="Times,serif" font-size="14.00">prune_r2</text>
</g>
<!-- v28 -->
<g id="node25" class="node">
<title>v28</title>
<ellipse fill="none" stroke="black" cx="915.6" cy="-747.6" rx="51.99" ry="18"/>
<text text-anchor="middle" x="915.6" y="-743.9" font-family="Times,serif" font-size="14.00">get_outliers</text>
</g>
<!-- v23&#45;&gt;v28 -->
<g id="edge25" class="edge">
<title>v23&#45;&gt;v28</title>
<path fill="none" stroke="black" d="M982.63,-818.29C977.49,-807.65 971.44,-793.64 962.6,-783.6 958.02,-778.4 952.48,-773.7 946.81,-769.56"/>
<polygon fill="black" stroke="black" points="948.73,-766.63 938.49,-763.89 944.79,-772.42 948.73,-766.63"/>
</g>
<!-- v23&#45;&gt;v28 -->
<g id="edge26" class="edge">
<title>v23&#45;&gt;v28</title>
<path fill="none" stroke="black" d="M997.27,-816.44C994.79,-806.07 988.93,-793.07 980.6,-783.6 974.71,-776.91 967.24,-771.05 959.43,-766.14"/>
<polygon fill="black" stroke="black" points="960.95,-762.98 950.54,-761.01 957.44,-769.04 960.95,-762.98"/>
</g>
<!-- v35 -->
<g id="node30" class="node">
<title>v35</title>
<ellipse fill="none" stroke="black" cx="813.6" cy="-660.6" rx="27.1" ry="18"/>
<text text-anchor="middle" x="813.6" y="-656.9" font-family="Times,serif" font-size="14.00">QC3</text>
</g>
<!-- v23&#45;&gt;v35 -->
<g id="edge34" class="edge">
<title>v23&#45;&gt;v35</title>
<path fill="none" stroke="black" d="M1000.69,-816.76C1010.25,-787.01 1024.31,-725.59 989.6,-696.6 986.9,-694.35 900.46,-677.86 849.74,-668.34"/>
<polygon fill="black" stroke="black" points="850.28,-664.88 839.81,-666.48 848.99,-671.76 850.28,-664.88"/>
</g>
<!-- v19&#45;&gt;v23 -->
<g id="edge21" class="edge">
<title>v19&#45;&gt;v23</title>
<path fill="none" stroke="black" d="M927.2,-903.81C940.39,-890.46 958.94,-871.69 973.24,-857.22"/>
<polygon fill="black" stroke="black" points="975.74,-859.67 980.28,-850.09 970.76,-854.75 975.74,-859.67"/>
</g>
<!-- v15 -->
<g id="node18" class="node">
<title>v15</title>
<ellipse fill="black" stroke="black" cx="1153.6" cy="-1008.6" rx="3.6" ry="3.6"/>
</g>
<!-- v15&#45;&gt;v19 -->
<g id="edge17" class="edge">
<title>v15&#45;&gt;v19</title>
<path fill="none" stroke="black" d="M1152.66,-1004.73C1149.62,-995.96 1139.19,-969.45 1120.6,-957.6 1074.75,-928.37 1053.2,-948.7 999.6,-939.6 992.93,-938.47 985.99,-937.24 979.06,-935.97"/>
<polygon fill="black" stroke="black" points="979.41,-932.48 968.94,-934.1 978.14,-939.36 979.41,-932.48"/>
<text text-anchor="middle" x="1183.1" y="-961.4" font-family="Times,serif" font-size="14.00">sample_metadata</text>
</g>
<!-- v16 -->
<g id="node19" class="node">
<title>v16</title>
<ellipse fill="black" stroke="black" cx="1271.6" cy="-1008.6" rx="3.6" ry="3.6"/>
</g>
<!-- v16&#45;&gt;v19 -->
<g id="edge18" class="edge">
<title>v16&#45;&gt;v19</title>
<path fill="none" stroke="black" d="M1270.47,-1004.66C1266.86,-995.7 1254.63,-968.68 1234.6,-957.6 1188.76,-932.26 1051.52,-946.52 999.6,-939.6 992.42,-938.64 984.94,-937.48 977.5,-936.21"/>
<polygon fill="black" stroke="black" points="977.88,-932.73 967.42,-934.44 976.66,-939.62 977.88,-932.73"/>
<text text-anchor="middle" x="1318.6" y="-961.4" font-family="Times,serif" font-size="14.00">PCs_ancestry_clustering</text>
</g>
<!-- v17 -->
<g id="node20" class="node">
<title>v17</title>
<ellipse fill="black" stroke="black" cx="795.6" cy="-1008.6" rx="3.6" ry="3.6"/>
</g>
<!-- v17&#45;&gt;v19 -->
<g id="edge19" class="edge">
<title>v17&#45;&gt;v19</title>
<path fill="none" stroke="black" d="M794.39,-1004.99C790.87,-996.97 781.57,-972.37 792.6,-957.6 801.43,-945.77 814.08,-937.78 827.85,-932.41"/>
<polygon fill="black" stroke="black" points="829.2,-935.65 837.53,-929.1 826.94,-929.03 829.2,-935.65"/>
<text text-anchor="middle" x="871.1" y="-961.4" font-family="Times,serif" font-size="14.00">clustering_outliers_trimmed</text>
</g>
<!-- v18 -->
<g id="node21" class="node">
<title>v18</title>
<ellipse fill="black" stroke="black" cx="975.6" cy="-1008.6" rx="3.6" ry="3.6"/>
</g>
<!-- v18&#45;&gt;v19 -->
<g id="edge20" class="edge">
<title>v18&#45;&gt;v19</title>
<path fill="none" stroke="black" d="M974.83,-1004.64C972.61,-996.49 965.55,-973.29 953.6,-957.6 950.4,-953.4 946.6,-949.39 942.6,-945.69"/>
<polygon fill="black" stroke="black" points="944.64,-942.83 934.77,-938.97 940.08,-948.14 944.64,-942.83"/>
<text text-anchor="middle" x="1039.1" y="-961.4" font-family="Times,serif" font-size="14.00">clustering_restriction_factor</text>
</g>
<!-- v20 -->
<g id="node22" class="node">
<title>v20</title>
<ellipse fill="black" stroke="black" cx="1012.6" cy="-921.6" rx="3.6" ry="3.6"/>
</g>
<!-- v20&#45;&gt;v23 -->
<g id="edge22" class="edge">
<title>v20&#45;&gt;v23</title>
<path fill="none" stroke="black" d="M1010.97,-918.19C1007.36,-912.71 998.76,-898.74 995.6,-885.6 993.88,-878.45 993.19,-870.57 993.03,-863.21"/>
<polygon fill="black" stroke="black" points="996.54,-862.99 993.13,-852.96 989.54,-862.92 996.54,-862.99"/>
<text text-anchor="middle" x="1050.6" y="-874.4" font-family="Times,serif" font-size="14.00">prune_window_size</text>
</g>
<!-- v21 -->
<g id="node23" class="node">
<title>v21</title>
<ellipse fill="black" stroke="black" cx="1127.6" cy="-921.6" rx="3.6" ry="3.6"/>
</g>
<!-- v21&#45;&gt;v23 -->
<g id="edge23" class="edge">
<title>v21&#45;&gt;v23</title>
<path fill="none" stroke="black" d="M1127.2,-917.87C1125.83,-909.5 1120.57,-884.02 1105.6,-870.6 1105.5,-870.51 1060.96,-856.48 1028.34,-846.22"/>
<polygon fill="black" stroke="black" points="1029.25,-842.83 1018.66,-843.17 1027.14,-849.51 1029.25,-842.83"/>
<text text-anchor="middle" x="1159.6" y="-874.4" font-family="Times,serif" font-size="14.00">prune_step_size</text>
</g>
<!-- v22 -->
<g id="node24" class="node">
<title>v22</title>
<ellipse fill="black" stroke="black" cx="1238.6" cy="-921.6" rx="3.6" ry="3.6"/>
</g>
<!-- v22&#45;&gt;v23 -->
<g id="edge24" class="edge">
<title>v22&#45;&gt;v23</title>
<path fill="none" stroke="black" d="M1237.79,-917.7C1235.15,-908.87 1225.9,-882.18 1207.6,-870.6 1177.55,-851.58 1083.39,-859.97 1048.6,-852.6 1041.75,-851.15 1034.54,-849.19 1027.68,-847.12"/>
<polygon fill="black" stroke="black" points="1028.59,-843.73 1018,-844.04 1026.47,-850.4 1028.59,-843.73"/>
<text text-anchor="middle" x="1246.6" y="-874.4" font-family="Times,serif" font-size="14.00">prune_r2</text>
</g>
<!-- v28&#45;&gt;v35 -->
<g id="edge31" class="edge">
<title>v28&#45;&gt;v35</title>
<path fill="none" stroke="black" d="M865.72,-742.28C845.51,-737.79 824.05,-728.93 811.6,-711.6 806.82,-704.95 805.83,-696.43 806.49,-688.3"/>
<polygon fill="black" stroke="black" points="809.95,-688.82 808.04,-678.4 803.04,-687.74 809.95,-688.82"/>
</g>
<!-- v28&#45;&gt;v35 -->
<g id="edge35" class="edge">
<title>v28&#45;&gt;v35</title>
<path fill="none" stroke="black" d="M871.92,-737.83C856.03,-732.63 839.15,-724.43 827.6,-711.6 821.92,-705.29 818.52,-696.85 816.5,-688.7"/>
<polygon fill="black" stroke="black" points="819.91,-687.9 814.6,-678.73 813.03,-689.2 819.91,-687.9"/>
<text text-anchor="middle" x="883.1" y="-700.4" font-family="Times,serif" font-size="14.00">allele_freq_deviated</text>
</g>
<!-- v29 -->
<g id="node31" class="node">
<title>v29</title>
<ellipse fill="none" stroke="black" cx="916.6" cy="-660.6" rx="3.5" ry="3.5"/>
<text text-anchor="middle" x="884.1" y="-667.9" font-family="Times,serif" font-size="14.00">collectFile</text>
</g>
<!-- v28&#45;&gt;v29 -->
<g id="edge32" class="edge">
<title>v28&#45;&gt;v29</title>
<path fill="none" stroke="black" d="M931.84,-730.14C936.19,-724.68 940.32,-718.28 942.6,-711.6 947.77,-696.44 935.7,-680.23 926.32,-670.5"/>
<polygon fill="black" stroke="black" points="928.48,-667.73 918.81,-663.42 923.68,-672.82 928.48,-667.73"/>
</g>
<!-- v24 -->
<g id="node26" class="node">
<title>v24</title>
<ellipse fill="black" stroke="black" cx="739.6" cy="-834.6" rx="3.6" ry="3.6"/>
</g>
<!-- v24&#45;&gt;v28 -->
<g id="edge27" class="edge">
<title>v24&#45;&gt;v28</title>
<path fill="none" stroke="black" d="M739.28,-830.85C738.46,-822.45 737.23,-796.87 750.6,-783.6 765.43,-768.88 815.02,-759.69 855.99,-754.45"/>
<polygon fill="black" stroke="black" points="856.43,-757.92 865.93,-753.23 855.57,-750.97 856.43,-757.92"/>
<text text-anchor="middle" x="781.1" y="-787.4" font-family="Times,serif" font-size="14.00">qc_het_SD</text>
</g>
<!-- v25 -->
<g id="node27" class="node">
<title>v25</title>
<ellipse fill="black" stroke="black" cx="823.6" cy="-834.6" rx="3.6" ry="3.6"/>
</g>
<!-- v25&#45;&gt;v28 -->
<g id="edge28" class="edge">
<title>v25&#45;&gt;v28</title>
<path fill="none" stroke="black" d="M822.43,-831.02C819.03,-823.09 810.06,-798.72 820.6,-783.6 829.42,-770.94 843.37,-762.85 857.88,-757.68"/>
<polygon fill="black" stroke="black" points="858.95,-761.02 867.45,-754.69 856.86,-754.34 858.95,-761.02"/>
<text text-anchor="middle" x="894.1" y="-787.4" font-family="Times,serif" font-size="14.00">gold_standard_allele_freqs</text>
</g>
<!-- v26 -->
<g id="node28" class="node">
<title>v26</title>
<ellipse fill="black" stroke="black" cx="1061.6" cy="-834.6" rx="3.6" ry="3.6"/>
</g>
<!-- v26&#45;&gt;v28 -->
<g id="edge29" class="edge">
<title>v26&#45;&gt;v28</title>
<path fill="none" stroke="black" d="M1059.41,-831.44C1051.76,-823.97 1025.27,-798.87 999.6,-783.6 987.59,-776.45 973.85,-770.07 961.01,-764.77"/>
<polygon fill="black" stroke="black" points="962,-761.39 951.41,-760.94 959.4,-767.9 962,-761.39"/>
<text text-anchor="middle" x="1078.1" y="-787.4" font-family="Times,serif" font-size="14.00">allele_freq_deviation</text>
</g>
<!-- v27 -->
<g id="node29" class="node">
<title>v27</title>
<ellipse fill="black" stroke="black" cx="1199.6" cy="-834.6" rx="3.6" ry="3.6"/>
</g>
<!-- v27&#45;&gt;v28 -->
<g id="edge30" class="edge">
<title>v27&#45;&gt;v28</title>
<path fill="none" stroke="black" d="M1197.64,-831.16C1190.74,-822.78 1166.55,-795.07 1139.6,-783.6 1072.54,-755.06 1048.16,-779.43 976.6,-765.6 972.17,-764.74 967.59,-763.73 963.03,-762.62"/>
<polygon fill="black" stroke="black" points="963.68,-759.17 953.12,-760.08 961.94,-765.95 963.68,-759.17"/>
<text text-anchor="middle" x="1191.6" y="-787.4" font-family="Times,serif" font-size="14.00">plink_path</text>
</g>
<!-- v43 -->
<g id="node37" class="node">
<title>v43</title>
<ellipse fill="none" stroke="black" cx="877.6" cy="-486.6" rx="68.49" ry="18"/>
<text text-anchor="middle" x="877.6" y="-482.9" font-family="Times,serif" font-size="14.00">linear_clumping</text>
</g>
<!-- v35&#45;&gt;v43 -->
<g id="edge40" class="edge">
<title>v35&#45;&gt;v43</title>
<path fill="none" stroke="black" d="M815.73,-642.48C823.9,-612.27 847.07,-549.32 862.89,-513.68"/>
<polygon fill="black" stroke="black" points="866.16,-514.95 867.14,-504.4 859.79,-512.03 866.16,-514.95"/>
</g>
<!-- v35&#45;&gt;v43 -->
<g id="edge41" class="edge">
<title>v35&#45;&gt;v43</title>
<path fill="none" stroke="black" d="M823.62,-643.73C837.74,-614.28 861.64,-550.9 872.62,-514.6"/>
<polygon fill="black" stroke="black" points="876.07,-515.28 875.48,-504.7 869.35,-513.34 876.07,-515.28"/>
</g>
<!-- v39 -->
<g id="node38" class="node">
<title>v39</title>
<ellipse fill="none" stroke="black" cx="981.6" cy="-573.6" rx="61.99" ry="18"/>
<text text-anchor="middle" x="981.6" y="-569.9" font-family="Times,serif" font-size="14.00">prepare_linear</text>
</g>
<!-- v35&#45;&gt;v39 -->
<g id="edge42" class="edge">
<title>v35&#45;&gt;v39</title>
<path fill="none" stroke="black" d="M834.54,-649.01C861.63,-635.3 909.36,-611.15 943.08,-594.09"/>
<polygon fill="black" stroke="black" points="944.85,-597.12 952.19,-589.48 941.69,-590.87 944.85,-597.12"/>
</g>
<!-- v55 -->
<g id="node53" class="node">
<title>v55</title>
<ellipse fill="none" stroke="black" cx="615.6" cy="-573.6" rx="59.29" ry="18"/>
<text text-anchor="middle" x="615.6" y="-569.9" font-family="Times,serif" font-size="14.00">regenie_gwas</text>
</g>
<!-- v35&#45;&gt;v55 -->
<g id="edge58" class="edge">
<title>v35&#45;&gt;v55</title>
<path fill="none" stroke="black" d="M795.19,-647.06C782.06,-635.65 764.23,-619.18 745.6,-609.6 723.91,-598.45 698.46,-590.71 675.81,-585.4"/>
<polygon fill="black" stroke="black" points="676.48,-581.96 665.96,-583.2 674.95,-588.79 676.48,-581.96"/>
</g>
<!-- v35&#45;&gt;v55 -->
<g id="edge59" class="edge">
<title>v35&#45;&gt;v55</title>
<path fill="none" stroke="black" d="M805.64,-642.92C795.94,-631.94 780.08,-618.07 763.6,-609.6 737.99,-596.43 707.13,-588.02 680.17,-582.75"/>
<polygon fill="black" stroke="black" points="680.52,-579.26 670.05,-580.88 679.25,-586.14 680.52,-579.26"/>
</g>
<!-- v30 -->
<g id="node32" class="node">
<title>v30</title>
<ellipse fill="black" stroke="black" cx="899.6" cy="-573.6" rx="1.8" ry="1.8"/>
</g>
<!-- v29&#45;&gt;v30 -->
<g id="edge33" class="edge">
<title>v29&#45;&gt;v30</title>
<path fill="none" stroke="black" d="M916.03,-656.77C913.83,-645.74 905.72,-605.22 901.78,-585.51"/>
<polygon fill="black" stroke="black" points="905.18,-584.68 899.79,-575.56 898.32,-586.05 905.18,-584.68"/>
</g>
<!-- v31 -->
<g id="node33" class="node">
<title>v31</title>
<ellipse fill="black" stroke="black" cx="989.6" cy="-747.6" rx="3.6" ry="3.6"/>
</g>
<!-- v31&#45;&gt;v35 -->
<g id="edge36" class="edge">
<title>v31&#45;&gt;v35</title>
<path fill="none" stroke="black" d="M988.15,-744.25C983.05,-736.18 964.96,-709.34 942.6,-696.6 913.94,-680.28 877.34,-671.29 850.45,-666.53"/>
<polygon fill="black" stroke="black" points="850.73,-663.02 840.3,-664.84 849.59,-669.93 850.73,-663.02"/>
<text text-anchor="middle" x="973.6" y="-700.4" font-family="Times,serif" font-size="14.00">mac</text>
</g>
<!-- v32 -->
<g id="node34" class="node">
<title>v32</title>
<ellipse fill="black" stroke="black" cx="672.6" cy="-747.6" rx="3.6" ry="3.6"/>
</g>
<!-- v32&#45;&gt;v35 -->
<g id="edge37" class="edge">
<title>v32&#45;&gt;v35</title>
<path fill="none" stroke="black" d="M672.81,-743.86C673.59,-735.47 677.11,-709.93 691.6,-696.6 704.17,-685.04 746.23,-674.65 777.47,-668.25"/>
<polygon fill="black" stroke="black" points="778.47,-671.62 787.59,-666.24 777.1,-664.75 778.47,-671.62"/>
<text text-anchor="middle" x="746.6" y="-700.4" font-family="Times,serif" font-size="14.00">prune_window_size</text>
</g>
<!-- v33 -->
<g id="node35" class="node">
<title>v33</title>
<ellipse fill="black" stroke="black" cx="488.6" cy="-747.6" rx="3.6" ry="3.6"/>
</g>
<!-- v33&#45;&gt;v35 -->
<g id="edge38" class="edge">
<title>v33&#45;&gt;v35</title>
<path fill="none" stroke="black" d="M489.45,-743.68C492.23,-734.77 501.9,-707.9 520.6,-696.6 560.49,-672.49 683.46,-685.23 729.6,-678.6 745.75,-676.28 763.49,-672.82 778.48,-669.64"/>
<polygon fill="black" stroke="black" points="779.34,-673.03 788.37,-667.49 777.85,-666.19 779.34,-673.03"/>
<text text-anchor="middle" x="564.6" y="-700.4" font-family="Times,serif" font-size="14.00">prune_step_size</text>
</g>
<!-- v34 -->
<g id="node36" class="node">
<title>v34</title>
<ellipse fill="black" stroke="black" cx="599.6" cy="-747.6" rx="3.6" ry="3.6"/>
</g>
<!-- v34&#45;&gt;v35 -->
<g id="edge39" class="edge">
<title>v34&#45;&gt;v35</title>
<path fill="none" stroke="black" d="M600.21,-743.76C602.25,-735.09 609.63,-708.83 626.6,-696.6 664.3,-669.43 683.93,-687.21 729.6,-678.6 745.52,-675.6 763.09,-672.08 778.03,-669.02"/>
<polygon fill="black" stroke="black" points="778.81,-672.43 787.9,-666.99 777.4,-665.57 778.81,-672.43"/>
<text text-anchor="middle" x="651.6" y="-700.4" font-family="Times,serif" font-size="14.00">prune_r2</text>
</g>
<!-- v44 -->
<g id="node45" class="node">
<title>v44</title>
<ellipse fill="black" stroke="black" cx="890.6" cy="-428.1" rx="1.8" ry="1.8"/>
</g>
<!-- v43&#45;&gt;v44 -->
<g id="edge50" class="edge">
<title>v43&#45;&gt;v44</title>
<path fill="none" stroke="black" d="M881.57,-468.34C883.69,-459.14 886.23,-448.1 888.08,-440.07"/>
<polygon fill="black" stroke="black" points="891.54,-440.63 890.37,-430.1 884.72,-439.07 891.54,-440.63"/>
</g>
<!-- v45 -->
<g id="node46" class="node">
<title>v45</title>
<ellipse fill="none" stroke="black" cx="915.6" cy="-428.1" rx="3.5" ry="3.5"/>
<text text-anchor="middle" x="895.1" y="-435.4" font-family="Times,serif" font-size="14.00">flatten</text>
</g>
<!-- v43&#45;&gt;v45 -->
<g id="edge51" class="edge">
<title>v43&#45;&gt;v45</title>
<path fill="none" stroke="black" d="M889,-468.65C895.32,-459.25 902.99,-447.85 908.47,-439.7"/>
<polygon fill="black" stroke="black" points="911.43,-441.57 914.1,-431.32 905.62,-437.67 911.43,-441.57"/>
</g>
<!-- v47 -->
<g id="node47" class="node">
<title>v47</title>
<ellipse fill="none" stroke="black" cx="866.6" cy="-428.1" rx="3.5" ry="3.5"/>
<text text-anchor="middle" x="846.1" y="-435.4" font-family="Times,serif" font-size="14.00">flatten</text>
</g>
<!-- v43&#45;&gt;v47 -->
<g id="edge52" class="edge">
<title>v43&#45;&gt;v47</title>
<path fill="none" stroke="black" d="M874.24,-468.34C872.57,-459.76 870.58,-449.57 869.06,-441.72"/>
<polygon fill="black" stroke="black" points="872.45,-440.81 867.1,-431.66 865.57,-442.15 872.45,-440.81"/>
</g>
<!-- v39&#45;&gt;v43 -->
<g id="edge46" class="edge">
<title>v39&#45;&gt;v43</title>
<path fill="none" stroke="black" d="M967.02,-555.88C957.7,-545.68 945.06,-532.7 932.6,-522.6 926.68,-517.8 920.06,-513.1 913.53,-508.78"/>
<polygon fill="black" stroke="black" points="915.05,-505.6 904.74,-503.16 911.28,-511.5 915.05,-505.6"/>
</g>
<!-- v36 -->
<g id="node39" class="node">
<title>v36</title>
<ellipse fill="black" stroke="black" cx="1152.6" cy="-660.6" rx="3.6" ry="3.6"/>
</g>
<!-- v36&#45;&gt;v39 -->
<g id="edge43" class="edge">
<title>v36&#45;&gt;v39</title>
<path fill="none" stroke="black" d="M1152.25,-656.81C1151.02,-648.29 1146.1,-622.4 1130.6,-609.6 1102.83,-586.67 1086.65,-599.85 1051.6,-591.6 1046.9,-590.49 1042.03,-589.34 1037.14,-588.17"/>
<polygon fill="black" stroke="black" points="1037.68,-584.69 1027.14,-585.76 1036.04,-591.5 1037.68,-584.69"/>
<text text-anchor="middle" x="1184.1" y="-613.4" font-family="Times,serif" font-size="14.00">PCs_covariates</text>
</g>
<!-- v37 -->
<g id="node40" class="node">
<title>v37</title>
<ellipse fill="black" stroke="black" cx="1260.6" cy="-660.6" rx="3.6" ry="3.6"/>
</g>
<!-- v37&#45;&gt;v39 -->
<g id="edge44" class="edge">
<title>v37&#45;&gt;v39</title>
<path fill="none" stroke="black" d="M1259.85,-656.7C1257.4,-647.84 1248.72,-621.1 1230.6,-609.6 1196.84,-588.18 1091.01,-598.33 1051.6,-591.6 1046.49,-590.73 1041.2,-589.69 1035.93,-588.57"/>
<polygon fill="black" stroke="black" points="1036.37,-585.08 1025.84,-586.32 1034.84,-591.91 1036.37,-585.08"/>
<text text-anchor="middle" x="1292.1" y="-613.4" font-family="Times,serif" font-size="14.00">sample_metadata</text>
</g>
<!-- v38 -->
<g id="node41" class="node">
<title>v38</title>
<ellipse fill="black" stroke="black" cx="957.6" cy="-660.6" rx="3.6" ry="3.6"/>
</g>
<!-- v38&#45;&gt;v39 -->
<g id="edge45" class="edge">
<title>v38&#45;&gt;v39</title>
<path fill="none" stroke="black" d="M957.13,-656.8C955.93,-649.08 953.25,-626.85 958.6,-609.6 959.59,-606.41 960.97,-603.23 962.56,-600.17"/>
<polygon fill="black" stroke="black" points="965.67,-601.8 967.82,-591.42 959.66,-598.19 965.67,-601.8"/>
<text text-anchor="middle" x="1044.6" y="-613.4" font-family="Times,serif" font-size="14.00">original_continuous_phenotype</text>
</g>
<!-- v40 -->
<g id="node42" class="node">
<title>v40</title>
<ellipse fill="black" stroke="black" cx="1064.6" cy="-573.6" rx="3.6" ry="3.6"/>
</g>
<!-- v40&#45;&gt;v43 -->
<g id="edge47" class="edge">
<title>v40&#45;&gt;v43</title>
<path fill="none" stroke="black" d="M1063.28,-569.8C1061.4,-566.08 1057.61,-559.52 1052.6,-555.6 1018.91,-529.27 973.8,-512.07 937.82,-501.56"/>
<polygon fill="black" stroke="black" points="938.51,-498.11 927.93,-498.77 936.61,-504.85 938.51,-498.11"/>
<text text-anchor="middle" x="1050.1" y="-526.4" font-family="Times,serif" font-size="14.00">clump_p1</text>
</g>
<!-- v41 -->
<g id="node43" class="node">
<title>v41</title>
<ellipse fill="black" stroke="black" cx="756.6" cy="-573.6" rx="3.6" ry="3.6"/>
</g>
<!-- v41&#45;&gt;v43 -->
<g id="edge48" class="edge">
<title>v41&#45;&gt;v43</title>
<path fill="none" stroke="black" d="M755.69,-569.97C753.07,-561.91 746.41,-537.21 757.6,-522.6 768.46,-508.41 784.75,-499.73 801.85,-494.48"/>
<polygon fill="black" stroke="black" points="803.23,-497.74 811.98,-491.77 801.42,-490.97 803.23,-497.74"/>
<text text-anchor="middle" x="785.1" y="-526.4" font-family="Times,serif" font-size="14.00">clump_kb</text>
</g>
<!-- v42 -->
<g id="node44" class="node">
<title>v42</title>
<ellipse fill="black" stroke="black" cx="876.6" cy="-573.6" rx="3.6" ry="3.6"/>
</g>
<!-- v42&#45;&gt;v43 -->
<g id="edge49" class="edge">
<title>v42&#45;&gt;v43</title>
<path fill="none" stroke="black" d="M876.63,-569.77C876.73,-561.28 877.04,-535.35 877.28,-514.87"/>
<polygon fill="black" stroke="black" points="880.78,-514.81 877.4,-504.77 873.78,-514.73 880.78,-514.81"/>
<text text-anchor="middle" x="902.6" y="-526.4" font-family="Times,serif" font-size="14.00">clump_r2</text>
</g>
<!-- v46 -->
<g id="node48" class="node">
<title>v46</title>
<ellipse fill="none" stroke="black" cx="915.6" cy="-378.1" rx="3.5" ry="3.5"/>
<text text-anchor="middle" x="883.1" y="-385.4" font-family="Times,serif" font-size="14.00">collectFile</text>
</g>
<!-- v45&#45;&gt;v46 -->
<g id="edge53" class="edge">
<title>v45&#45;&gt;v46</title>
<path fill="none" stroke="black" d="M915.6,-424.52C915.6,-418.52 915.6,-403.3 915.6,-392.12"/>
<polygon fill="black" stroke="black" points="919.1,-391.93 915.6,-381.93 912.1,-391.93 919.1,-391.93"/>
</g>
<!-- v48 -->
<g id="node50" class="node">
<title>v48</title>
<ellipse fill="none" stroke="black" cx="878.6" cy="-378.1" rx="3.5" ry="3.5"/>
<text text-anchor="middle" x="846.1" y="-363.4" font-family="Times,serif" font-size="14.00">collectFile</text>
</g>
<!-- v47&#45;&gt;v48 -->
<g id="edge55" class="edge">
<title>v47&#45;&gt;v48</title>
<path fill="none" stroke="black" d="M867.25,-424.52C868.76,-418.46 872.63,-402.97 875.43,-391.76"/>
<polygon fill="black" stroke="black" points="878.86,-392.48 877.89,-381.93 872.07,-390.78 878.86,-392.48"/>
</g>
<!-- v62 -->
<g id="node49" class="node">
<title>v62</title>
<ellipse fill="none" stroke="black" cx="856.6" cy="-320.1" rx="3.5" ry="3.5"/>
<text text-anchor="middle" x="834.6" y="-327.4" font-family="Times,serif" font-size="14.00">collect</text>
</g>
<!-- v46&#45;&gt;v62 -->
<g id="edge54" class="edge">
<title>v46&#45;&gt;v62</title>
<path fill="none" stroke="black" d="M914.57,-374.56C911.92,-368.29 904.31,-351.8 893.6,-341.6 886.45,-334.79 876.62,-329.49 868.88,-325.98"/>
<polygon fill="black" stroke="black" points="870.19,-322.73 859.61,-322.16 867.52,-329.2 870.19,-322.73"/>
<text text-anchor="middle" x="1019.1" y="-345.4" font-family="Times,serif" font-size="14.00">preclump_pruned_flattened_output_linear</text>
</g>
<!-- v63 -->
<g id="node63" class="node">
<title>v63</title>
<ellipse fill="none" stroke="black" cx="692.6" cy="-262.1" rx="3.5" ry="3.5"/>
<text text-anchor="middle" x="678.1" y="-269.4" font-family="Times,serif" font-size="14.00">mix</text>
</g>
<!-- v62&#45;&gt;v63 -->
<g id="edge73" class="edge">
<title>v62&#45;&gt;v63</title>
<path fill="none" stroke="black" d="M853.47,-318.03C835.01,-311.73 739.99,-279.28 705.3,-267.44"/>
<polygon fill="black" stroke="black" points="706.1,-264.01 695.5,-264.09 703.83,-270.63 706.1,-264.01"/>
</g>
<!-- v49 -->
<g id="node51" class="node">
<title>v49</title>
<ellipse fill="none" stroke="black" cx="771.6" cy="-320.1" rx="3.5" ry="3.5"/>
<text text-anchor="middle" x="754.6" y="-327.4" font-family="Times,serif" font-size="14.00">view</text>
</g>
<!-- v48&#45;&gt;v49 -->
<g id="edge56" class="edge">
<title>v48&#45;&gt;v49</title>
<path fill="none" stroke="black" d="M878.71,-374.41C878.82,-367.77 878.14,-350.53 868.6,-341.6 856.67,-330.43 809.07,-324.55 785.28,-322.26"/>
<polygon fill="black" stroke="black" points="785.38,-318.76 775.11,-321.36 784.76,-325.73 785.38,-318.76"/>
</g>
<!-- v65 -->
<g id="node52" class="node">
<title>v65</title>
<ellipse fill="none" stroke="black" cx="359.6" cy="-262.1" rx="3.5" ry="3.5"/>
<text text-anchor="middle" x="337.6" y="-269.4" font-family="Times,serif" font-size="14.00">collect</text>
</g>
<!-- v49&#45;&gt;v65 -->
<g id="edge57" class="edge">
<title>v49&#45;&gt;v65</title>
<path fill="none" stroke="black" d="M768.29,-318.84C749.2,-317.33 651.16,-309.33 571.6,-298.6 496.18,-288.43 406.39,-271.94 372.98,-265.65"/>
<polygon fill="black" stroke="black" points="373.3,-262.14 362.83,-263.72 372,-269.02 373.3,-262.14"/>
<text text-anchor="middle" x="661.1" y="-287.4" font-family="Times,serif" font-size="14.00">clumped_flattened_output_linear</text>
</g>
<!-- v66 -->
<g id="node66" class="node">
<title>v66</title>
<ellipse fill="none" stroke="black" cx="282.6" cy="-218.1" rx="3.5" ry="3.5"/>
<text text-anchor="middle" x="268.1" y="-225.4" font-family="Times,serif" font-size="14.00">mix</text>
</g>
<!-- v65&#45;&gt;v66 -->
<g id="edge76" class="edge">
<title>v65&#45;&gt;v66</title>
<path fill="none" stroke="black" d="M357.04,-259.7C347.36,-254.42 312.62,-235.48 294.22,-225.44"/>
<polygon fill="black" stroke="black" points="295.71,-222.26 285.25,-220.55 292.35,-228.41 295.71,-222.26"/>
</g>
<!-- v56 -->
<g id="node59" class="node">
<title>v56</title>
<ellipse fill="black" stroke="black" cx="604.6" cy="-486.6" rx="1.8" ry="1.8"/>
</g>
<!-- v55&#45;&gt;v56 -->
<g id="edge65" class="edge">
<title>v55&#45;&gt;v56</title>
<path fill="none" stroke="black" d="M613.37,-555.4C611.19,-538.52 607.92,-513.26 606.05,-498.82"/>
<polygon fill="black" stroke="black" points="609.49,-498.15 604.74,-488.68 602.55,-499.05 609.49,-498.15"/>
</g>
<!-- v57 -->
<g id="node60" class="node">
<title>v57</title>
<ellipse fill="none" stroke="black" cx="629.6" cy="-486.6" rx="3.5" ry="3.5"/>
<text text-anchor="middle" x="609.1" y="-493.9" font-family="Times,serif" font-size="14.00">flatten</text>
</g>
<!-- v55&#45;&gt;v57 -->
<g id="edge66" class="edge">
<title>v55&#45;&gt;v57</title>
<path fill="none" stroke="black" d="M618.43,-555.4C621.13,-539.04 625.12,-514.82 627.53,-500.19"/>
<polygon fill="black" stroke="black" points="630.99,-500.68 629.17,-490.24 624.09,-499.54 630.99,-500.68"/>
</g>
<!-- v59 -->
<g id="node61" class="node">
<title>v59</title>
<ellipse fill="none" stroke="black" cx="396.6" cy="-486.6" rx="3.5" ry="3.5"/>
<text text-anchor="middle" x="376.1" y="-493.9" font-family="Times,serif" font-size="14.00">flatten</text>
</g>
<!-- v55&#45;&gt;v59 -->
<g id="edge67" class="edge">
<title>v55&#45;&gt;v59</title>
<path fill="none" stroke="black" d="M580.41,-558.94C530.67,-539.64 442.17,-505.29 409.33,-492.54"/>
<polygon fill="black" stroke="black" points="410.25,-489.14 399.66,-488.79 407.72,-495.67 410.25,-489.14"/>
</g>
<!-- v50 -->
<g id="node54" class="node">
<title>v50</title>
<ellipse fill="black" stroke="black" cx="247.6" cy="-660.6" rx="3.6" ry="3.6"/>
</g>
<!-- v50&#45;&gt;v55 -->
<g id="edge60" class="edge">
<title>v50&#45;&gt;v55</title>
<path fill="none" stroke="black" d="M248.12,-656.71C249.87,-647.9 256.44,-621.25 273.6,-609.6 316.58,-580.41 459.29,-574.73 546.19,-574.09"/>
<polygon fill="black" stroke="black" points="546.26,-577.59 556.24,-574.04 546.22,-570.59 546.26,-577.59"/>
<text text-anchor="middle" x="321.1" y="-613.4" font-family="Times,serif" font-size="14.00">sample_metadata</text>
</g>
<!-- v51 -->
<g id="node55" class="node">
<title>v51</title>
<ellipse fill="black" stroke="black" cx="365.6" cy="-660.6" rx="3.6" ry="3.6"/>
</g>
<!-- v51&#45;&gt;v55 -->
<g id="edge61" class="edge">
<title>v51&#45;&gt;v55</title>
<path fill="none" stroke="black" d="M365.73,-656.77C366.3,-648.14 369.28,-621.96 384.6,-609.6 409.03,-589.88 488.38,-581.21 547.29,-577.44"/>
<polygon fill="black" stroke="black" points="547.53,-580.93 557.3,-576.83 547.1,-573.95 547.53,-580.93"/>
<text text-anchor="middle" x="470.6" y="-613.4" font-family="Times,serif" font-size="14.00">original_continuous_phenotype</text>
</g>
<!-- v52 -->
<g id="node56" class="node">
<title>v52</title>
<ellipse fill="black" stroke="black" cx="560.6" cy="-660.6" rx="3.6" ry="3.6"/>
</g>
<!-- v52&#45;&gt;v55 -->
<g id="edge62" class="edge">
<title>v52&#45;&gt;v55</title>
<path fill="none" stroke="black" d="M560.18,-656.64C559.16,-648.47 557.33,-625.24 566.6,-609.6 569.67,-604.41 573.85,-599.79 578.47,-595.74"/>
<polygon fill="black" stroke="black" points="580.81,-598.35 586.56,-589.45 576.52,-592.82 580.81,-598.35"/>
<text text-anchor="middle" x="594.1" y="-613.4" font-family="Times,serif" font-size="14.00">clump_p1</text>
</g>
<!-- v53 -->
<g id="node57" class="node">
<title>v53</title>
<ellipse fill="black" stroke="black" cx="638.6" cy="-660.6" rx="3.6" ry="3.6"/>
</g>
<!-- v53&#45;&gt;v55 -->
<g id="edge63" class="edge">
<title>v53&#45;&gt;v55</title>
<path fill="none" stroke="black" d="M637.83,-656.77C635.53,-648.25 628.46,-622.11 622.9,-601.58"/>
<polygon fill="black" stroke="black" points="626.24,-600.51 620.25,-591.77 619.48,-602.34 626.24,-600.51"/>
<text text-anchor="middle" x="655.1" y="-613.4" font-family="Times,serif" font-size="14.00">clump_kb</text>
</g>
<!-- v54 -->
<g id="node58" class="node">
<title>v54</title>
<ellipse fill="black" stroke="black" cx="716.6" cy="-660.6" rx="3.6" ry="3.6"/>
</g>
<!-- v54&#45;&gt;v55 -->
<g id="edge64" class="edge">
<title>v54&#45;&gt;v55</title>
<path fill="none" stroke="black" d="M715.65,-656.96C712.6,-648.89 702.39,-624.14 686.6,-609.6 679.32,-602.9 670.52,-597.2 661.63,-592.47"/>
<polygon fill="black" stroke="black" points="662.91,-589.19 652.4,-587.88 659.8,-595.46 662.91,-589.19"/>
<text text-anchor="middle" x="724.6" y="-613.4" font-family="Times,serif" font-size="14.00">clump_r2</text>
</g>
<!-- v58 -->
<g id="node62" class="node">
<title>v58</title>
<ellipse fill="none" stroke="black" cx="629.6" cy="-403.1" rx="3.5" ry="3.5"/>
<text text-anchor="middle" x="597.1" y="-410.4" font-family="Times,serif" font-size="14.00">collectFile</text>
</g>
<!-- v57&#45;&gt;v58 -->
<g id="edge68" class="edge">
<title>v57&#45;&gt;v58</title>
<path fill="none" stroke="black" d="M629.6,-482.89C629.6,-472.74 629.6,-436.57 629.6,-416.96"/>
<polygon fill="black" stroke="black" points="633.1,-416.91 629.6,-406.91 626.1,-416.91 633.1,-416.91"/>
</g>
<!-- v60 -->
<g id="node64" class="node">
<title>v60</title>
<ellipse fill="none" stroke="black" cx="263.6" cy="-428.1" rx="3.5" ry="3.5"/>
<text text-anchor="middle" x="231.1" y="-435.4" font-family="Times,serif" font-size="14.00">collectFile</text>
</g>
<!-- v59&#45;&gt;v60 -->
<g id="edge70" class="edge">
<title>v59&#45;&gt;v60</title>
<path fill="none" stroke="black" d="M393.82,-484.42C378.61,-477.96 305.01,-446.69 275.69,-434.24"/>
<polygon fill="black" stroke="black" points="276.94,-430.96 266.36,-430.27 274.2,-437.4 276.94,-430.96"/>
</g>
<!-- v58&#45;&gt;v63 -->
<g id="edge69" class="edge">
<title>v58&#45;&gt;v63</title>
<path fill="none" stroke="black" d="M628.69,-399.21C626.03,-390.29 618.96,-362.55 626.6,-341.6 637.7,-311.14 666.41,-284.29 682.05,-271.33"/>
<polygon fill="black" stroke="black" points="684.47,-273.88 690.13,-264.92 680.12,-268.39 684.47,-273.88"/>
<text text-anchor="middle" x="745.6" y="-345.4" font-family="Times,serif" font-size="14.00">preclump_pruned_flattened_output_regenie</text>
</g>
<!-- v64 -->
<g id="node67" class="node">
<title>v64</title>
<ellipse fill="none" stroke="black" cx="692.6" cy="-218.1" rx="3.5" ry="3.5"/>
<text text-anchor="middle" x="670.6" y="-225.4" font-family="Times,serif" font-size="14.00">collect</text>
</g>
<!-- v63&#45;&gt;v64 -->
<g id="edge74" class="edge">
<title>v63&#45;&gt;v64</title>
<path fill="none" stroke="black" d="M692.6,-258.34C692.6,-253.07 692.6,-241.23 692.6,-231.92"/>
<polygon fill="black" stroke="black" points="696.1,-231.92 692.6,-221.92 689.1,-231.92 696.1,-231.92"/>
</g>
<!-- v61 -->
<g id="node65" class="node">
<title>v61</title>
<ellipse fill="none" stroke="black" cx="230.6" cy="-349.1" rx="3.5" ry="3.5"/>
<text text-anchor="middle" x="213.6" y="-356.4" font-family="Times,serif" font-size="14.00">view</text>
</g>
<!-- v60&#45;&gt;v61 -->
<g id="edge71" class="edge">
<title>v60&#45;&gt;v61</title>
<path fill="none" stroke="black" d="M262.5,-424.54C258.37,-414.9 243.61,-380.45 235.69,-361.99"/>
<polygon fill="black" stroke="black" points="238.89,-360.56 231.74,-352.75 232.46,-363.32 238.89,-360.56"/>
</g>
<!-- v61&#45;&gt;v66 -->
<g id="edge72" class="edge">
<title>v61&#45;&gt;v66</title>
<path fill="none" stroke="black" d="M231.69,-345.41C237.61,-330.72 266.15,-259.9 277.72,-231.21"/>
<polygon fill="black" stroke="black" points="281.03,-232.36 281.52,-221.78 274.53,-229.75 281.03,-232.36"/>
<text text-anchor="middle" x="350.6" y="-287.4" font-family="Times,serif" font-size="14.00">clumped_flattened_output_regenie</text>
</g>
<!-- v67 -->
<g id="node69" class="node">
<title>v67</title>
<ellipse fill="none" stroke="black" cx="282.6" cy="-145.6" rx="3.5" ry="3.5"/>
<text text-anchor="middle" x="260.6" y="-152.9" font-family="Times,serif" font-size="14.00">collect</text>
</g>
<!-- v66&#45;&gt;v67 -->
<g id="edge77" class="edge">
<title>v66&#45;&gt;v67</title>
<path fill="none" stroke="black" d="M282.6,-214.42C282.6,-205.52 282.6,-176.54 282.6,-159.47"/>
<polygon fill="black" stroke="black" points="286.1,-159.28 282.6,-149.28 279.1,-159.28 286.1,-159.28"/>
</g>
<!-- v68 -->
<g id="node68" class="node">
<title>v68</title>
<ellipse fill="none" stroke="black" cx="692.6" cy="-145.6" rx="33.29" ry="18"/>
<text text-anchor="middle" x="692.6" y="-141.9" font-family="Times,serif" font-size="14.00">qqplot</text>
</g>
<!-- v64&#45;&gt;v68 -->
<g id="edge75" class="edge">
<title>v64&#45;&gt;v68</title>
<path fill="none" stroke="black" d="M692.6,-214.42C692.6,-207.76 692.6,-189.84 692.6,-174.09"/>
<polygon fill="black" stroke="black" points="696.1,-173.7 692.6,-163.7 689.1,-173.7 696.1,-173.7"/>
<text text-anchor="middle" x="788.1" y="-185.4" font-family="Times,serif" font-size="14.00">preclump_pruned_flattened_output</text>
</g>
<!-- v70 -->
<g id="node71" class="node">
<title>v70</title>
<ellipse fill="black" stroke="black" cx="704.6" cy="-58.6" rx="1.8" ry="1.8"/>
</g>
<!-- v68&#45;&gt;v70 -->
<g id="edge79" class="edge">
<title>v68&#45;&gt;v70</title>
<path fill="none" stroke="black" d="M695.03,-127.4C697.41,-110.52 700.98,-85.26 703.02,-70.82"/>
<polygon fill="black" stroke="black" points="706.51,-71.07 704.45,-60.68 699.58,-70.09 706.51,-71.07"/>
</g>
<!-- v69 -->
<g id="node72" class="node">
<title>v69</title>
<ellipse fill="black" stroke="black" cx="679.6" cy="-58.6" rx="1.8" ry="1.8"/>
</g>
<!-- v68&#45;&gt;v69 -->
<g id="edge80" class="edge">
<title>v68&#45;&gt;v69</title>
<path fill="none" stroke="black" d="M689.97,-127.4C687.39,-110.52 683.52,-85.26 681.32,-70.82"/>
<polygon fill="black" stroke="black" points="684.74,-70.04 679.77,-60.68 677.82,-71.1 684.74,-70.04"/>
</g>
<!-- v72 -->
<g id="node70" class="node">
<title>v72</title>
<ellipse fill="none" stroke="black" cx="365.6" cy="-58.6" rx="48.19" ry="18"/>
<text text-anchor="middle" x="365.6" y="-54.9" font-family="Times,serif" font-size="14.00">manhattan</text>
</g>
<!-- v67&#45;&gt;v72 -->
<g id="edge78" class="edge">
<title>v67&#45;&gt;v72</title>
<path fill="none" stroke="black" d="M281.45,-142.03C278.12,-134.15 269.31,-109.9 279.6,-94.6 287.42,-82.98 299.84,-75.21 312.84,-70.02"/>
<polygon fill="black" stroke="black" points="314.07,-73.3 322.35,-66.68 311.75,-66.7 314.07,-73.3"/>
<text text-anchor="middle" x="350.6" y="-98.4" font-family="Times,serif" font-size="14.00">clumped_flattened_output</text>
</g>
<!-- v73 -->
<g id="node74" class="node">
<title>v73</title>
<ellipse fill="black" stroke="black" cx="365.6" cy="-1.8" rx="1.8" ry="1.8"/>
</g>
<!-- v72&#45;&gt;v73 -->
<g id="edge82" class="edge">
<title>v72&#45;&gt;v73</title>
<path fill="none" stroke="black" d="M365.6,-40.56C365.6,-31.87 365.6,-21.56 365.6,-13.9"/>
<polygon fill="black" stroke="black" points="369.1,-13.76 365.6,-3.76 362.1,-13.76 369.1,-13.76"/>
</g>
<!-- v71 -->
<g id="node73" class="node">
<title>v71</title>
<ellipse fill="black" stroke="black" cx="447.6" cy="-145.6" rx="3.6" ry="3.6"/>
</g>
<!-- v71&#45;&gt;v72 -->
<g id="edge81" class="edge">
<title>v71&#45;&gt;v72</title>
<path fill="none" stroke="black" d="M447.06,-142.01C445.29,-134.05 438.99,-109.6 425.6,-94.6 419.77,-88.07 412.42,-82.43 404.89,-77.7"/>
<polygon fill="black" stroke="black" points="406.44,-74.55 396.03,-72.56 402.93,-80.61 406.44,-74.55"/>
<text text-anchor="middle" x="476.1" y="-98.4" font-family="Times,serif" font-size="14.00">thr_signif_pval</text>
</g>
</g>
</svg>
